<svg width="80" height="62" viewBox="0 0 80 62" fill="none" xmlns="http://www.w3.org/2000/svg">
<rect width="80" height="80" rx="40" fill="#A3D052"/>
<path d="M51.4274 34.2846L49.9035 35.618C49.4591 36.0307 48.9353 36.237 48.3321 36.237C47.7289 36.237 47.2051 36.0624 46.7607 35.7132C46.3162 35.364 46.0147 34.9195 45.8559 34.3799C45.6972 33.8402 45.7131 33.2688 45.9035 32.6656L46.6655 30.2846L45.0464 29.3322C44.5385 29.0465 44.1813 28.6338 43.975 28.0942C43.7686 27.5545 43.7448 27.0148 43.9035 26.4751C44.0623 25.9354 44.3797 25.5148 44.8559 25.2132C45.3321 24.9116 45.8718 24.7608 46.475 24.7608H48.3797L48.9512 22.9513C49.1416 22.3481 49.467 21.864 49.9274 21.4989C50.3877 21.1338 50.8877 20.9513 51.4274 20.9513C51.967 20.9513 52.467 21.1338 52.9274 21.4989C53.3877 21.864 53.7131 22.3481 53.9035 22.9513L54.475 24.7608H56.3797C56.9829 24.7608 57.5147 24.9116 57.975 25.2132C58.4353 25.5148 58.7607 25.9354 58.9512 26.4751C59.1734 27.0465 59.1734 27.6021 58.9512 28.1418C58.7289 28.6815 58.3797 29.0783 57.9035 29.3322L56.1893 30.2846L56.9512 32.6656C57.1416 33.2688 57.1575 33.8481 56.9988 34.4037C56.8401 34.9592 56.5385 35.3957 56.094 35.7132C55.6178 36.0624 55.0861 36.237 54.4988 36.237C53.9115 36.237 53.3956 36.0307 52.9512 35.618L51.4274 34.2846ZM51.4274 30.4751C51.967 30.4751 52.4194 30.2926 52.7845 29.9275C53.1496 29.5624 53.3321 29.11 53.3321 28.5703C53.3321 28.0307 53.1496 27.5783 52.7845 27.2132C52.4194 26.8481 51.967 26.6656 51.4274 26.6656C50.8877 26.6656 50.4353 26.8481 50.0702 27.2132C49.7051 27.5783 49.5226 28.0307 49.5226 28.5703C49.5226 29.11 49.7051 29.5624 50.0702 29.9275C50.4353 30.2926 50.8877 30.4751 51.4274 30.4751ZM43.4274 51.237C44.1575 53.1418 43.9194 54.9195 42.7131 56.5703C41.5067 58.2211 39.8083 59.0465 37.6178 59.0465C36.5702 59.0465 35.5782 58.7767 34.6416 58.237C33.7051 57.6973 33.0147 56.983 32.5702 56.0941C29.9353 56.4751 27.7528 55.8005 26.0226 54.0703C24.2924 52.3402 23.5861 50.1259 23.9036 47.4275C22.9512 46.8878 22.221 46.1497 21.7131 45.2132C21.2051 44.2767 20.9512 43.2053 20.9512 41.9989C20.9512 40.0624 21.8321 38.4989 23.594 37.3084C25.3559 36.118 27.0782 35.8719 28.7607 36.5703L31.7131 37.8084C32.348 36.8243 33.1893 36.0227 34.2369 35.4037C35.2845 34.7846 36.4115 34.4434 37.6178 34.3799V30.4751H40.475V34.7608C41.6496 35.11 42.6178 35.6576 43.3797 36.4037C44.1416 37.1497 44.7924 38.1894 45.3321 39.5227H49.5226V42.3799H45.6178C45.5543 43.5862 45.2289 44.7132 44.6416 45.7608C44.0543 46.8084 43.2686 47.6497 42.2845 48.2846L43.4274 51.237ZM28.094 44.5703C29.1099 44.5703 30.0067 44.4434 30.7845 44.1894C31.5623 43.9354 32.5702 43.4275 33.8083 42.6656L28.094 40.2846C27.1734 39.9037 26.3877 39.9116 25.7369 40.3084C25.0861 40.7053 24.7607 41.3322 24.7607 42.1894C24.7607 43.0148 25.0305 43.618 25.5702 43.9989C26.1099 44.3799 26.9512 44.5703 28.094 44.5703ZM37.6178 55.237C38.4115 55.237 39.0543 54.9592 39.5464 54.4037C40.0385 53.8481 40.1575 53.2687 39.9036 52.6656L37.3321 46.1894C36.7289 47.2053 36.2607 48.2211 35.9274 49.237C35.594 50.2529 35.4274 51.1735 35.4274 51.9989C35.4274 53.0465 35.6099 53.8481 35.975 54.4037C36.3401 54.9592 36.8877 55.237 37.6178 55.237ZM40.7607 44.6656C41.0782 44.3481 41.3321 43.9275 41.5226 43.4037C41.7131 42.8799 41.8083 42.3322 41.8083 41.7608C41.8083 40.7449 41.475 39.8878 40.8083 39.1894C40.1416 38.491 39.3162 38.1418 38.3321 38.1418C37.7607 38.1418 37.221 38.237 36.7131 38.4275C36.2051 38.618 35.7766 38.8878 35.4274 39.237L39.1416 40.9513L40.7607 44.6656Z" fill="#19471F"/>
</svg>
