<svg width="80" height="80" viewBox="0 0 80 80" fill="none" xmlns="http://www.w3.org/2000/svg">
<rect width="80" height="80" rx="40" fill="#72A5FD"/>
<g>
<path d="M25.8339 60.2381C23.0343 60.2381 20.6479 59.2515 18.6747 57.2783C16.7015 55.3051 15.7148 52.9187 15.7148 50.119C15.7148 47.3194 16.7015 44.933 18.6747 42.9598C20.6479 40.9866 23.0343 40 25.8339 40C28.6335 40 31.0199 40.9866 32.9931 42.9598C34.9663 44.933 35.9529 47.3194 35.9529 50.119C35.9529 52.9187 34.9663 55.3051 32.9931 57.2783C31.0199 59.2515 28.6335 60.2381 25.8339 60.2381ZM25.8339 56.1905C27.5204 56.1905 28.9539 55.6002 30.1345 54.4196C31.315 53.2391 31.9053 51.8056 31.9053 50.119C31.9053 48.4325 31.315 46.999 30.1345 45.8185C28.9539 44.6379 27.5204 44.0476 25.8339 44.0476C24.1474 44.0476 22.7139 44.6379 21.5333 45.8185C20.3527 46.999 19.7625 48.4325 19.7625 50.119C19.7625 51.8056 20.3527 53.2391 21.5333 54.4196C22.7139 55.6002 24.1474 56.1905 25.8339 56.1905ZM37.9767 54.1667V44.0476L31.5006 38.381C31.0958 38.0099 30.7922 37.5799 30.5898 37.0908C30.3875 36.6017 30.2863 36.0873 30.2863 35.5476C30.2863 35.0079 30.3959 34.4936 30.6151 34.0045C30.8344 33.5154 31.1295 33.0853 31.5006 32.7143L37.1672 27.0476C37.572 26.6429 38.0358 26.3393 38.5586 26.1369C39.0814 25.9345 39.6295 25.8333 40.2029 25.8333C40.7764 25.8333 41.3245 25.9345 41.8473 26.1369C42.3701 26.3393 42.8339 26.6429 43.2387 27.0476L47.0839 30.8929C48.0283 31.8373 49.1077 32.5794 50.322 33.119C51.5363 33.6587 52.818 33.9286 54.1672 33.9286V37.9762C52.2446 37.9762 50.4147 37.6052 48.6776 36.8631C46.9405 36.121 45.3974 35.0754 44.0482 33.7262L42.4291 32.1071L37.572 36.9643L42.0244 41.619V54.1667H37.9767ZM47.0839 26.8452C45.9708 26.8452 45.0179 26.4489 44.2253 25.6563C43.4326 24.8636 43.0363 23.9107 43.0363 22.7976C43.0363 21.6845 43.4326 20.7316 44.2253 19.939C45.0179 19.1463 45.9708 18.75 47.0839 18.75C48.197 18.75 49.1499 19.1463 49.9425 19.939C50.7352 20.7316 51.1315 21.6845 51.1315 22.7976C51.1315 23.9107 50.7352 24.8636 49.9425 25.6563C49.1499 26.4489 48.197 26.8452 47.0839 26.8452ZM54.1672 60.2381C51.3676 60.2381 48.9812 59.2515 47.008 57.2783C45.0348 55.3051 44.0482 52.9187 44.0482 50.119C44.0482 47.3194 45.0348 44.933 47.008 42.9598C48.9812 40.9866 51.3676 40 54.1672 40C56.9668 40 59.3532 40.9866 61.3265 42.9598C63.2997 44.933 64.2863 47.3194 64.2863 50.119C64.2863 52.9187 63.2997 55.3051 61.3265 57.2783C59.3532 59.2515 56.9668 60.2381 54.1672 60.2381ZM54.1672 56.1905C55.8537 56.1905 57.2873 55.6002 58.4678 54.4196C59.6484 53.2391 60.2387 51.8056 60.2387 50.119C60.2387 48.4325 59.6484 46.999 58.4678 45.8185C57.2873 44.6379 55.8537 44.0476 54.1672 44.0476C52.4807 44.0476 51.0472 44.6379 49.8666 45.8185C48.6861 46.999 48.0958 48.4325 48.0958 50.119C48.0958 51.8056 48.6861 53.2391 49.8666 54.4196C51.0472 55.6002 52.4807 56.1905 54.1672 56.1905Z" fill="#202048"/>
</g>
</svg>
