<svg width="104" height="104" viewBox="0 0 104 104" fill="none" xmlns="http://www.w3.org/2000/svg">
<rect width="104" height="104" rx="52" fill="#FF7C72"/>
<path d="M22.666 73.3333V60L35.9993 66.6667L49.3327 60V73.3333L35.9993 80L22.666 73.3333Z" fill="#401C30"/>
<path d="M35.9993 62.6663L22.666 55.9997L35.9993 49.333L49.3327 55.9997L35.9993 62.6663Z" fill="#401C30"/>
<path d="M54.666 73.3333V60L67.9993 66.6667L81.3327 60V73.3333L67.9993 80L54.666 73.3333Z" fill="#401C30"/>
<path d="M67.9993 62.6663L54.666 55.9997L67.9993 49.333L81.3327 55.9997L67.9993 62.6663Z" fill="#401C30"/>
<path d="M38.666 45.3333V32L51.9993 38.6667L65.3327 32V45.3333L51.9993 52L38.666 45.3333Z" fill="#401C30"/>
<path d="M51.9993 34.6663L38.666 27.9997L51.9993 21.333L65.3327 27.9997L51.9993 34.6663Z" fill="#401C30"/>
</svg>
