<svg width="80" height="80" viewBox="0 0 80 80" fill="none" xmlns="http://www.w3.org/2000/svg">
<rect width="80" height="80" rx="40" fill="#72A5FD"/>
<path d="M23.4045 60.2389H21.7854V56.1913H23.4045C25.0235 56.1913 26.5667 56.0142 28.034 55.66C29.5012 55.3059 31.1456 54.7409 32.967 53.9651C34.2487 54.606 35.3703 55.1372 36.3316 55.5588C37.2929 55.9805 38.5156 56.1913 39.9997 56.1913C41.4839 56.1913 42.7066 55.9805 43.6679 55.5588C44.6292 55.1372 45.7507 54.606 47.0325 53.9651C48.8202 54.7409 50.4645 55.3059 51.9655 55.66C53.4665 56.0142 55.0265 56.1913 56.6456 56.1913H58.214V60.2389H56.6456C54.9928 60.2389 53.3822 60.0871 51.8137 59.7835C50.2453 59.48 48.7021 59.0246 47.1843 58.4175C45.8351 59.0583 44.6039 59.5137 43.4908 59.7835C42.3777 60.0534 41.214 60.1883 39.9997 60.1883C38.7854 60.1883 37.6302 60.0534 36.534 59.7835C35.4377 59.5137 34.215 59.0583 32.8658 58.4175C31.3479 59.0246 29.8048 59.48 28.2363 59.7835C26.6679 60.0871 25.0573 60.2389 23.4045 60.2389ZM39.9997 52.1437C37.9759 52.1437 36.2051 51.469 34.6872 50.1198L32.4104 48.096C31.4997 49.0067 30.4794 49.7825 29.3494 50.4234C28.2195 51.0643 27.0136 51.5196 25.7319 51.7895L21.4313 37.977C21.2626 37.4036 21.3132 36.8808 21.5831 36.4085C21.8529 35.9363 22.2745 35.6159 22.8479 35.4472L25.8331 34.6377V27.8579C25.8331 26.7448 26.2294 25.792 27.0221 24.9993C27.8147 24.2066 28.7676 23.8103 29.8807 23.8103H34.9402V19.7627H45.0593V23.8103H50.1188C51.2319 23.8103 52.1848 24.2066 52.9774 24.9993C53.7701 25.792 54.1664 26.7448 54.1664 27.8579V34.6377L57.1515 35.4472C57.7249 35.6159 58.1466 35.9363 58.4164 36.4085C58.6862 36.8808 58.7368 37.4036 58.5682 37.977L54.2676 51.7895C52.9858 51.5196 51.78 51.0643 50.65 50.4234C49.5201 49.7825 48.4997 49.0067 47.589 48.096L45.3122 50.1198C43.7944 51.469 42.0235 52.1437 39.9997 52.1437ZM29.8807 33.5752L39.9997 30.8936L50.1188 33.5752V27.8579H29.8807V33.5752Z" fill="#202048"/>
</svg>
