<svg width="80" height="80" viewBox="0 0 80 80" fill="none" xmlns="http://www.w3.org/2000/svg">
<rect width="80" height="80" rx="40" fill="#FF7C72"/>
<path d="M40.0005 19.7617C41.687 19.7617 43.1205 20.352 44.3011 21.5326C45.4816 22.7131 46.0719 24.1466 46.0719 25.8331C46.0719 27.5197 45.4816 28.9532 44.3011 30.1337C43.1205 31.3143 41.687 31.9046 40.0005 31.9046C38.314 31.9046 36.8804 31.3143 35.6999 30.1337C34.5193 28.9532 33.929 27.5197 33.929 25.8331C33.929 24.1466 34.5193 22.7131 35.6999 21.5326C36.8804 20.352 38.314 19.7617 40.0005 19.7617ZM40.0005 33.9284C41.5858 33.9284 43.1542 34.1139 44.7058 34.4849C46.2574 34.856 47.6572 35.3788 48.9052 36.0534C50.187 36.6943 51.2157 37.4532 51.9915 38.3302C52.7673 39.2072 53.1552 40.1685 53.1552 41.2141V52.9522C53.1552 53.5256 53.0203 54.0906 52.7505 54.6471C52.4806 55.2037 52.1096 55.7181 51.6374 56.1903C51.1651 56.6625 50.617 57.101 49.993 57.5058C49.369 57.9105 48.6691 58.2816 47.8933 58.6189V54.0653C47.8933 52.7835 47.0079 51.7379 45.2371 50.9284C43.4662 50.1189 41.7207 49.7141 40.0005 49.7141C38.314 49.7141 36.6865 50.0598 35.118 50.7513C33.5496 51.4428 32.5798 52.3451 32.2088 53.4581C33.4905 53.9641 34.806 54.3183 36.1552 54.5206C37.5044 54.723 38.8874 54.8411 40.304 54.8748H42.0243V60.1367C41.7882 60.2042 41.5436 60.2379 41.2906 60.2379H40.5064C39.2921 60.2379 37.9008 60.103 36.3323 59.8331C34.7639 59.5633 33.2713 59.1417 31.8546 58.5683C30.438 57.9949 29.249 57.2444 28.2877 56.3168C27.3264 55.3892 26.8457 54.2677 26.8457 52.9522V41.2141C26.8457 40.1685 27.2336 39.2072 28.0094 38.3302C28.7852 37.4532 29.7971 36.6943 31.0451 36.0534C32.3269 35.3788 33.7435 34.856 35.2951 34.4849C36.8467 34.1139 38.4151 33.9284 40.0005 33.9284ZM40.0005 46.0712C41.1136 46.0712 42.0664 45.6749 42.8591 44.8823C43.6518 44.0896 44.0481 43.1367 44.0481 42.0236C44.0481 40.9105 43.6518 39.9577 42.8591 39.165C42.0664 38.3723 41.1136 37.976 40.0005 37.976C38.8874 37.976 37.9345 38.3723 37.1418 39.165C36.3492 39.9577 35.9528 40.9105 35.9528 42.0236C35.9528 43.1367 36.3492 44.0896 37.1418 44.8823C37.9345 45.6749 38.8874 46.0712 40.0005 46.0712Z" fill="#401C30"/>
</svg>
