<svg width="211" height="127" viewBox="0 0 211 127" fill="none" xmlns="http://www.w3.org/2000/svg">
<circle cx="107.788" cy="72.3248" r="12" fill="#FF7C72"/>
<path d="M4.08295 107.511C2.21262 107.642 1.04607 105.816 0.111196 104.03C-0.128867 103.6 0.0352601 102.998 0.454696 102.662C0.874133 102.325 1.35947 102.307 1.84307 102.581C2.29454 102.858 2.97922 104.118 3.39345 104.66C3.7299 105.079 4.24399 105.025 4.55353 104.57C5.00683 103.938 5.30643 102.152 5.48079 101.029C5.92946 97.571 6.74538 92.3525 6.87564 92.0465C7.07865 91.5053 7.53697 91.2298 8.0967 91.3009C8.62092 91.3432 9.02502 91.7881 9.11456 92.3309C9.16184 92.7807 8.97735 93.8072 7.65526 102.555C7.30818 105.125 6.29997 107.278 4.08295 107.511Z" fill="white"/>
<path d="M15.7312 104.63C14.4458 105.999 12.7801 105.914 11.5898 104.48C9.53556 101.935 10.6389 96.9786 12.8293 94.0195C13.2285 93.4903 13.702 93.0507 14.1891 92.7396C14.9907 92.3305 15.5183 92.405 16.1321 92.9902C16.4229 93.2845 16.6647 93.4215 16.9674 93.5196C18.0209 93.9612 18.4992 95.7301 18.3907 97.1709C18.1603 99.9239 17.4293 102.859 15.7312 104.63ZM13.7901 102.852C15.099 102.942 16.4071 97.152 15.7563 95.5961C15.4672 95.0092 14.9987 95.1884 14.5387 95.7565C13.4443 97.3984 12.6983 99.2635 12.9211 101.384C13.0157 102.284 13.2693 102.842 13.7901 102.852Z" fill="white"/>
<path d="M19.9821 100.674C20.8061 97.6967 21.5458 93.2983 21.7319 92.5966C21.9569 91.9557 22.4694 91.577 22.997 91.6515C23.785 91.7311 24.0842 92.4143 23.9301 93.7299C23.6812 95.9976 23.0586 98.1096 22.5458 100.34C21.9417 102.937 21.7571 104.581 20.4922 104.292C19.0735 104.084 19.6234 102.207 19.9821 100.674Z" fill="white"/>
<path d="M25.7803 103.866C25.2527 103.791 24.8165 103.35 24.7523 102.739C24.7051 102.29 25.1807 99.7058 25.673 97.8998C26.5107 94.4333 27.1132 90.894 28.4306 90.7555C28.8449 90.6795 29.2508 90.8317 29.5771 91.1548C30.0843 91.6537 30.9278 93.8066 31.369 95.2221L31.7831 96.3805C31.9944 96.8456 32.1144 97.0604 32.4679 97.0232C32.8856 96.9793 32.9787 96.3198 33.3256 94.9839C33.7824 93.1492 34.3036 91.3077 34.86 90.7295C35.068 90.5452 35.2828 90.4251 35.6041 90.3914C36.0861 90.3407 36.776 90.723 36.8215 91.4654C36.8452 91.6903 36.7758 91.9575 36.6777 92.2602C35.7066 94.7662 35.468 95.8957 34.5897 99.594C34.4104 100.36 34.2124 101.258 33.9315 102.294C33.7894 102.797 33.4342 103.126 32.9844 103.174C32.5345 103.221 32.0611 103.043 31.657 102.599C30.9942 101.856 30.8219 100.835 29.3547 96.7657C29.1501 96.3649 28.6326 96.3868 28.4804 96.7926C27.8747 98.4481 27.3856 100.903 27.1013 102.525C26.9388 103.452 26.472 103.956 25.7803 103.866Z" fill="white"/>
<path d="M51.0186 100.921C49.7332 102.29 48.0675 102.206 46.8772 100.771C44.823 98.226 45.9263 93.2697 48.1167 90.3107C48.5159 89.7815 48.9895 89.3418 49.4765 89.0308C50.2782 88.6217 50.8058 88.6961 51.4195 89.2814C51.7103 89.5756 51.9521 89.7127 52.2548 89.8108C53.3083 90.2523 53.7866 92.0212 53.6781 93.462C53.4477 96.215 52.7167 99.1506 51.0186 100.921ZM49.0775 99.1433C50.3864 99.2331 51.6945 93.4431 51.0437 91.8872C50.7546 91.3004 50.2862 91.4796 49.8261 92.0477C48.7317 93.6895 47.9857 95.5547 48.2086 97.6753C48.3031 98.5749 48.5567 99.133 49.0775 99.1433Z" fill="white"/>
<path d="M59.7114 100.235C58.3516 101.515 56.3985 101.168 55.5413 99.5034C54.3343 97.2913 55.0233 92.411 56.0165 89.188C56.2449 88.5793 56.5679 88.253 57.011 88.1414C57.8041 87.9606 58.5041 88.4393 58.4279 89.2594C58.3483 90.0475 57.3769 94.4052 57.3481 95.0579C57.2582 96.984 57.3629 97.9801 57.904 98.1831C59.0758 98.5147 60.8134 93.1019 61.6884 88.7543C61.9236 87.5926 62.5646 87.2004 63.2951 87.351C64.0679 87.5946 64.3316 88.2491 64.0794 89.2502L62.9728 93.5571C62.1167 96.5383 60.8919 99.1035 59.7114 100.235Z" fill="white"/>
<path d="M65.726 99.6025C64.5558 99.5955 64.6625 98.4473 64.6407 97.3126C64.6884 94.6762 64.9712 92.7299 65.5315 89.0976C65.9309 86.7166 68.5386 86.1826 70.8181 86.8527C72.9132 87.3146 73.8769 89.065 72.9922 90.8473C72.5726 91.801 72.072 91.9835 71.086 92.8019C70.577 93.2127 70.6496 93.5949 71.2364 93.9231C72.3355 94.4897 73.4092 95.124 74.4542 95.7939C75.6378 96.5466 75.9742 96.966 75.9775 97.6154C76.067 98.7755 74.9982 99.1152 73.8111 98.3304C72.5751 97.3882 69.0158 95.3584 68.0688 95.0031C67.5632 94.8289 67.1624 95.0334 67.1488 95.5222C67.0826 97.0559 67.1887 99.6111 65.726 99.6025ZM67.8665 91.2236C68.1641 91.5821 68.6968 91.3962 69.5559 90.9161C70.2967 90.5459 70.7415 90.1418 70.6265 89.6666C70.4102 88.8447 68.2338 88.846 67.9801 89.5224C67.6789 90.3662 67.5689 90.865 67.8665 91.2236Z" fill="white"/>
<path d="M19.5346 125.734C17.1805 126.805 14.8028 125.223 14.7079 122.476C14.6092 119.212 16.6478 113.629 18.7956 111.924C19.9595 110.968 21.161 111.014 22.2367 112.04C23.0388 112.858 23.4077 113.966 23.135 114.697C22.8024 115.498 21.7778 115.667 21.2126 114.994C20.792 114.537 20.8939 114.142 20.4314 114.012C19.0575 113.817 16.8677 120.479 17.1753 122.563C17.2797 123.592 18.1125 123.923 18.9398 123.249C19.5506 122.721 20.4895 121.327 20.8305 121.109C21.4226 120.776 22.1129 120.922 22.4113 121.484C23.176 122.694 20.8499 125.091 19.5346 125.734Z" fill="white"/>
<path d="M29.0535 123.935C27.7211 125.259 26.0594 125.116 24.9199 123.641C22.9557 121.025 24.2314 116.11 26.5237 113.23C26.9411 112.715 27.4297 112.292 27.9273 111.998C28.7428 111.617 29.2674 111.71 29.8604 112.316C30.1408 112.621 30.3776 112.766 30.6767 112.875C31.7141 113.353 32.1304 115.137 31.9717 116.573C31.6454 119.317 30.8124 122.225 29.0535 123.935ZM27.1757 122.09C28.4806 122.226 29.99 116.485 29.3939 114.907C29.1254 114.311 28.651 114.474 28.1714 115.025C27.0204 116.628 26.2097 118.466 26.3585 120.593C26.4216 121.495 26.6555 122.062 27.1757 122.09Z" fill="white"/>
<path d="M42.9168 124.585C42.3254 124.464 42.027 123.902 42.173 123.212C42.4052 121.9 42.6718 120.618 43.3301 117.528C43.4949 116.642 43.6155 116.05 43.2774 115.847C42.9393 115.644 42.5841 116.123 42.2612 116.599L41.075 118.625C40.4059 119.708 39.945 120.064 39.2981 120.077C38.2301 120.087 37.9233 118.942 37.6098 117.701C37.4771 117.192 37.4546 116.87 37.0678 116.897C36.7455 116.92 36.6092 117.285 36.4796 117.748C36.0376 119.301 35.6578 120.817 35.3171 122.428C35.1404 123.606 34.6285 124.16 33.9082 124.049C33.2846 123.93 32.8251 123.38 32.8744 122.696C32.9251 121.105 34.702 115.022 35.5711 112.629C35.8902 111.636 36.4643 111.045 37.1088 111C38.4947 110.903 39.0579 112.936 39.4584 114.495C39.5499 114.877 39.6601 115.064 39.9869 115.106C40.3114 115.116 40.4613 114.943 40.842 114.366C41.8154 113.002 43.6094 110.869 44.7052 110.792C45.382 110.745 45.966 111.222 46.2179 112.047C46.5546 113.157 46.1929 114.931 45.9608 116.243C45.4591 119.257 44.6704 123.264 44.361 123.933C44.077 124.504 43.5127 124.77 42.9168 124.585Z" fill="white"/>
<path d="M56.7267 123.619C56.1353 123.498 55.8369 122.936 55.9829 122.246C56.2151 120.934 56.4817 119.653 57.14 116.562C57.3048 115.676 57.4253 115.085 57.0873 114.882C56.7492 114.679 56.394 115.157 56.0711 115.633L54.8849 117.659C54.2157 118.742 53.7548 119.098 53.108 119.111C52.0399 119.121 51.7332 117.977 51.4197 116.735C51.287 116.227 51.2644 115.904 50.8777 115.931C50.5554 115.954 50.419 116.32 50.2894 116.782C49.8475 118.335 49.4677 119.852 49.1269 121.462C48.9502 122.641 48.4384 123.195 47.7181 123.083C47.0945 122.965 46.6349 122.414 46.6843 121.73C46.735 120.14 48.5119 114.056 49.381 111.664C49.7001 110.67 50.2741 110.079 50.9187 110.034C52.3046 109.937 52.8678 111.971 53.2683 113.529C53.3598 113.912 53.47 114.098 53.7968 114.14C54.1213 114.15 54.2712 113.978 54.6519 113.4C55.6253 112.037 57.4193 109.903 58.5151 109.827C59.1919 109.779 59.7758 110.257 60.0278 111.081C60.3645 112.191 60.0028 113.965 59.7706 115.277C59.2689 118.292 58.4803 122.298 58.1709 122.967C57.8869 123.538 57.3225 123.804 56.7267 123.619Z" fill="white"/>
<path d="M65.712 121.598C64.3084 122.83 62.3685 122.415 61.57 120.722C60.4409 118.469 61.2998 113.616 62.4049 110.429C62.6544 109.829 62.9886 109.514 63.4353 109.418C64.2343 109.265 64.9172 109.768 64.8124 110.585C64.7053 111.369 63.5825 115.691 63.5308 116.342C63.3737 118.264 63.4436 119.263 63.9773 119.485C65.1369 119.857 67.0623 114.508 68.0884 110.194C68.3641 109.041 69.0184 108.671 69.7432 108.847C70.507 109.118 70.7477 109.781 70.4608 110.773L69.2045 115.038C68.2448 117.988 66.9313 120.509 65.712 121.598Z" fill="white"/>
<path d="M71.3255 121.27C70.8008 121.177 70.3803 120.721 70.3375 120.109C70.3059 119.657 70.8714 117.092 71.4265 115.304C72.3846 111.869 73.1103 108.353 74.4317 108.26C74.8484 108.199 75.2487 108.365 75.5636 108.699C76.0531 109.216 76.8209 111.397 77.2124 112.827L77.5858 113.999C77.7808 114.471 77.8933 114.69 78.2478 114.665C78.6668 114.636 78.7828 113.98 79.1761 112.657C79.6967 110.839 80.2818 109.017 80.8581 108.459C81.0725 108.282 81.2913 108.169 81.6136 108.147C82.097 108.113 82.7731 108.519 82.7928 109.263C82.8085 109.488 82.7299 109.753 82.6212 110.052C81.5633 112.522 81.2854 113.643 80.2786 117.308C80.0727 118.068 79.8434 118.958 79.5266 119.984C79.367 120.481 79.0005 120.798 78.5493 120.83C78.0981 120.861 77.6311 120.667 77.2428 120.209C76.6063 119.444 76.4698 118.417 75.1455 114.299C74.955 113.891 74.4371 113.895 74.2708 114.296C73.6077 115.929 73.0332 118.366 72.6924 119.976C72.4977 120.897 72.0136 121.384 71.3255 121.27Z" fill="white"/>
<path d="M83.7286 116.614C84.656 113.666 85.5487 109.297 85.7593 108.602C86.0065 107.969 86.5319 107.609 87.0565 107.701C87.8413 107.808 88.1165 108.502 87.9166 109.811C87.5886 112.069 86.8927 114.158 86.3024 116.369C85.608 118.944 85.3662 120.58 84.1122 120.247C82.7015 119.989 83.3166 118.132 83.7286 116.614Z" fill="white"/>
<path d="M93.3132 120.219C92.6116 119.911 92.4421 119.34 92.7612 118.346C93.4182 116.163 94.6698 110.44 94.5954 109.377C94.5751 109.086 94.4282 108.838 94.0736 108.862C92.3333 108.984 90.5188 109.435 89.7453 109.489C89.3585 109.516 89.0182 109.281 88.8187 108.744C88.5481 108.115 89.0763 107.333 89.9053 107.146C92.1298 106.537 93.8012 106.355 100.088 105.948C101.345 105.86 101.984 106.204 102.038 106.978C102.077 107.526 101.694 108.07 101.086 108.178C100.317 108.296 99.2557 108.403 98.6112 108.448C97.3542 108.536 97.2643 108.639 97.0254 109.854C96.4728 113.067 95.7838 116.645 95.0481 119.093C94.7268 120.055 94.0148 120.526 93.3132 120.219Z" fill="white"/>
<path d="M105.617 125.706C104.92 125.917 104.243 125.511 104.129 124.806C104.02 124.166 104.509 123.29 105.536 119.914C105.749 119.252 105.72 118.833 105.336 118.439C105.09 118.164 103.616 112.826 102.708 110.493C101.969 108.731 102.161 107.779 103.225 107.704C104.542 107.547 104.87 109.468 105.76 111.996C106.372 113.8 106.66 114.686 107.199 114.519C107.483 114.402 107.57 114.266 107.892 113.305C108.835 110.583 110.447 106.778 110.869 106.328C111.227 105.882 111.703 105.751 112.2 105.911C112.9 106.186 113.05 106.952 112.609 108.052C110.343 113.166 108.738 118.46 106.838 123.71C106.403 124.906 106.156 125.539 105.617 125.706Z" fill="white"/>
<path d="M129.69 45.1488C129.257 45.4917 129.184 46.1207 129.527 46.5536C129.87 46.9865 130.499 47.0595 130.932 46.7165L129.69 45.1488ZM130.389 45.8706L129.865 45.019L129.815 45.05L129.768 45.0867L130.389 45.8706ZM135.553 41.7085L135.873 42.6558L135.553 41.7085ZM136.83 40.91L137.544 41.6097L136.83 40.91ZM137.996 39.9528L138.541 40.7915L137.996 39.9528ZM143.332 37.1989L143.74 38.112L143.332 37.1989ZM144.733 36.6591L145.044 37.6096L144.733 36.6591ZM146.111 36.0645L146.589 36.9428L146.111 36.0645ZM147.405 35.265L147.976 36.0863L147.405 35.265ZM148.754 34.5897L149.067 35.5393L148.754 34.5897ZM150.182 34.1124L149.862 33.1652L150.182 34.1124ZM158.858 31.6646L158.813 32.6636L158.858 31.6646ZM160.344 31.4167L159.971 30.489L160.344 31.4167ZM164.746 30.4992L165.017 29.5364L164.746 30.4992ZM166.267 30.4721L165.934 29.5292L166.267 30.4721ZM169.195 29.7992L168.998 28.8186L169.195 29.7992ZM170.669 29.5027L170.471 28.5225L170.669 29.5027ZM172.152 29.2607L172.276 30.253L172.152 29.2607ZM182.64 28.7145L183.08 27.8165L182.64 28.7145ZM184.145 28.8846L184.405 29.8502L184.145 28.8846ZM188.639 28.8221L189.006 27.8917L188.639 28.8221ZM193.166 28.7254L193.115 29.7241L193.166 28.7254ZM194.638 29.0987L194.216 30.0051L194.638 29.0987ZM196.121 29.3757L196.196 30.3729L196.121 29.3757ZM200.566 30.0806L200.279 31.0386L200.566 30.0806ZM202.047 30.3416L201.989 31.3399L202.047 30.3416ZM204.889 31.336L204.564 32.2819L204.889 31.336ZM206.312 31.7844L206.588 30.8233L206.312 31.7844ZM208.792 32.2131L209.281 31.341L209.239 31.3169L209.194 31.2972L208.792 32.2131ZM208.926 32.2881L208.437 33.1603L208.546 33.2215L208.667 33.254L208.926 32.2881ZM208.763 33.2799C209.297 33.423 209.845 33.1066 209.988 32.5732C210.131 32.0398 209.815 31.4913 209.282 31.3482L208.763 33.2799ZM130.311 45.9327L130.932 46.7165L131.01 46.6545L130.389 45.8706L129.768 45.0867L129.69 45.1488L130.311 45.9327ZM130.389 45.8706L130.913 46.7222C131.741 46.2129 132.409 45.72 132.842 45.241L132.101 44.5699L131.36 43.8989C131.12 44.1636 130.647 44.5378 129.865 45.019L130.389 45.8706ZM132.101 44.5699L132.842 45.241C133.181 44.8667 133.521 44.4879 133.861 44.1047L133.113 43.441L132.365 42.7772C132.029 43.1556 131.694 43.5295 131.36 43.8989L132.101 44.5699ZM133.113 43.441L133.861 44.1047C134.157 43.7712 134.477 43.4731 134.823 43.2091L134.216 42.4143L133.609 41.6194C133.16 41.9628 132.745 42.3491 132.365 42.7772L133.113 43.441ZM134.216 42.4143L134.823 43.2091C135.131 42.9742 135.479 42.7892 135.873 42.6558L135.553 41.7085L135.232 40.7613C134.64 40.9616 134.097 41.2471 133.609 41.6194L134.216 42.4143ZM135.553 41.7085L135.873 42.6558C136.513 42.4395 137.074 42.0896 137.544 41.6097L136.83 40.91L136.115 40.2102C135.869 40.4614 135.579 40.6439 135.232 40.7613L135.553 41.7085ZM136.83 40.91L137.544 41.6097C137.852 41.2954 138.184 41.0232 138.541 40.7915L137.996 39.9528L137.452 39.1141C136.969 39.4275 136.523 39.7935 136.115 40.2102L136.83 40.91ZM137.996 39.9528L138.541 40.7915C138.94 40.5323 139.349 40.2874 139.769 40.0569L139.287 39.1806L138.805 38.3043C138.343 38.5582 137.892 38.8282 137.452 39.1141L137.996 39.9528ZM139.287 39.1806L139.769 40.0569C140.242 39.7968 140.7 39.5109 141.142 39.1993L140.566 38.3819L139.99 37.5645C139.608 37.8334 139.213 38.08 138.805 38.3043L139.287 39.1806ZM140.566 38.3819L141.142 39.1993C141.465 38.9715 141.818 38.7997 142.204 38.6831L141.915 37.7257L141.626 36.7684C141.037 36.9462 140.49 37.2118 139.99 37.5645L140.566 38.3819ZM141.915 37.7257L142.204 38.6831C142.732 38.5238 143.244 38.3336 143.74 38.112L143.332 37.1989L142.925 36.2858C142.507 36.4722 142.074 36.6331 141.626 36.7684L141.915 37.7257ZM143.332 37.1989L143.74 38.112C144.165 37.9222 144.6 37.7548 145.044 37.6096L144.733 36.6591L144.422 35.7086C143.912 35.8753 143.413 36.0677 142.925 36.2858L143.332 37.1989ZM144.733 36.6591L145.044 37.6096C145.578 37.4347 146.094 37.2123 146.589 36.9428L146.111 36.0645L145.633 35.1862C145.244 35.3977 144.841 35.5717 144.422 35.7086L144.733 36.6591ZM146.111 36.0645L146.589 36.9428C147.063 36.6847 147.525 36.3991 147.976 36.0863L147.405 35.265L146.835 34.4437C146.443 34.7159 146.042 34.9634 145.633 35.1862L146.111 36.0645ZM147.405 35.265L147.976 36.0863C148.319 35.8477 148.682 35.6663 149.067 35.5393L148.754 34.5897L148.441 33.64C147.869 33.8284 147.333 34.0972 146.835 34.4437L147.405 35.265ZM148.754 34.5897L149.067 35.5393C149.548 35.3809 150.026 35.221 150.503 35.0597L150.182 34.1124L149.862 33.1652C149.39 33.3248 148.916 33.4831 148.441 33.64L148.754 34.5897ZM150.182 34.1124L150.503 35.0597C150.959 34.9055 151.419 34.7648 151.885 34.6374L151.621 33.6728L151.357 32.7083C150.853 32.846 150.355 32.9984 149.862 33.1652L150.182 34.1124ZM151.621 33.6728L151.885 34.6374C152.399 34.4966 152.906 34.3321 153.405 34.1439L153.052 33.2083L152.699 32.2727C152.259 32.4387 151.811 32.5839 151.357 32.7083L151.621 33.6728ZM153.052 33.2083L153.405 34.1439C153.735 34.0192 154.094 33.9641 154.494 33.9875L154.552 32.9892L154.61 31.9909C153.948 31.9522 153.307 32.0431 152.699 32.2727L153.052 33.2083ZM154.552 32.9892L154.494 33.9875C155.178 34.0276 155.836 33.9125 156.452 33.6326L156.038 32.7223L155.624 31.8119C155.32 31.9502 154.988 32.013 154.61 31.9909L154.552 32.9892ZM156.038 32.7223L156.452 33.6326C156.942 33.4097 157.426 33.1603 157.902 32.8846L157.401 32.019L156.901 31.1534C156.479 31.3973 156.054 31.6167 155.624 31.8119L156.038 32.7223ZM157.401 32.019L157.902 32.8846C158.184 32.7212 158.48 32.6486 158.813 32.6636L158.858 31.6646L158.903 30.6656C158.191 30.6336 157.516 30.7972 156.901 31.1534L157.401 32.019ZM158.858 31.6646L158.813 32.6636C159.473 32.6933 160.111 32.5884 160.718 32.3444L160.344 31.4167L159.971 30.489C159.639 30.6226 159.287 30.6829 158.903 30.6656L158.858 31.6646ZM160.344 31.4167L160.718 32.3444C161.093 32.1934 161.48 32.1023 161.883 32.0704L161.803 31.0735L161.724 30.0767C161.12 30.1247 160.534 30.2624 159.971 30.489L160.344 31.4167ZM161.803 31.0735L161.883 32.0704C162.528 32.0191 163.144 31.8345 163.722 31.5251L163.25 30.6434L162.778 29.7618C162.434 29.9458 162.085 30.048 161.724 30.0767L161.803 31.0735ZM163.25 30.6434L163.722 31.5251C163.939 31.4087 164.17 31.3761 164.476 31.462L164.746 30.4992L165.017 29.5364C164.249 29.3211 163.483 29.3846 162.778 29.7618L163.25 30.6434ZM164.746 30.4992L164.476 31.462C165.19 31.6624 165.909 31.6592 166.6 31.4149L166.267 30.4721L165.934 29.5292C165.671 29.6223 165.376 29.6372 165.017 29.5364L164.746 30.4992ZM166.267 30.4721L166.6 31.4149C167.029 31.2635 167.463 31.1474 167.902 31.0662L167.721 30.0828L167.539 29.0995C166.995 29.1999 166.46 29.3433 165.934 29.5292L166.267 30.4721ZM167.721 30.0828L167.902 31.0662C168.399 30.9745 168.895 30.879 169.391 30.7797L169.195 29.7992L168.998 28.8186C168.512 28.9159 168.026 29.0095 167.539 29.0995L167.721 30.0828ZM169.195 29.7992L169.391 30.7797C169.882 30.6814 170.375 30.5824 170.867 30.4829L170.669 29.5027L170.471 28.5225C169.98 28.6218 169.489 28.7205 168.998 28.8186L169.195 29.7992ZM170.669 29.5027L170.867 30.4829C171.334 30.3885 171.804 30.3118 172.276 30.253L172.152 29.2607L172.028 28.2684C171.506 28.3334 170.987 28.4182 170.471 28.5225L170.669 29.5027ZM172.152 29.2607L172.276 30.253C172.65 30.2062 173.038 30.2262 173.444 30.3196L173.668 29.345L173.892 28.3705C173.271 28.2274 172.647 28.1911 172.028 28.2684L172.152 29.2607ZM173.668 29.345L173.444 30.3196C174.229 30.5002 174.991 30.3572 175.676 29.9383L175.154 29.0851L174.633 28.232C174.364 28.396 174.135 28.4263 173.892 28.3705L173.668 29.345ZM175.154 29.0851L175.676 29.9383C175.932 29.782 176.144 29.7589 176.375 29.822L176.638 28.8571L176.901 27.8922C176.107 27.6762 175.331 27.8053 174.633 28.232L175.154 29.0851ZM176.638 28.8571L176.375 29.822C176.953 29.9792 177.531 30.0738 178.107 30.103L178.158 29.1043L178.208 28.1055C177.783 28.084 177.348 28.0139 176.901 27.8922L176.638 28.8571ZM178.158 29.1043L178.107 30.103C178.793 30.1377 179.457 29.987 180.087 29.6773L179.645 28.7801L179.203 27.8829C178.851 28.0561 178.524 28.1215 178.208 28.1055L178.158 29.1043ZM179.645 28.7801L180.087 29.6773C180.466 29.4905 180.829 29.3969 181.181 29.3794L181.131 28.3806L181.082 27.3818C180.433 27.4141 179.805 27.5868 179.203 27.8829L179.645 28.7801ZM181.131 28.3806L181.181 29.3794C181.492 29.3639 181.827 29.4302 182.2 29.6126L182.64 28.7145L183.08 27.8165C182.441 27.5038 181.771 27.3475 181.082 27.3818L181.131 28.3806ZM182.64 28.7145L182.2 29.6126C182.901 29.9562 183.651 30.0532 184.405 29.8502L184.145 28.8846L183.885 27.919C183.643 27.9843 183.389 27.9679 183.08 27.8165L182.64 28.7145ZM184.145 28.8846L184.405 29.8502C184.748 29.758 185.081 29.7513 185.42 29.8278L185.64 28.8524L185.861 27.877C185.202 27.7282 184.539 27.743 183.885 27.919L184.145 28.8846ZM185.64 28.8524L185.42 29.8278C186.1 29.9816 186.784 29.9443 187.453 29.7277L187.145 28.7764L186.837 27.825C186.497 27.9352 186.178 27.9486 185.861 27.877L185.64 28.8524ZM187.145 28.7764L187.453 29.7277C187.737 29.6356 187.997 29.6438 188.273 29.7525L188.639 28.8221L189.006 27.8917C188.298 27.6127 187.561 27.5904 186.837 27.825L187.145 28.7764ZM188.639 28.8221L188.273 29.7525C188.85 29.9797 189.439 30.1218 190.038 30.1732L190.123 29.1768L190.209 28.1805C189.814 28.1466 189.413 28.0522 189.006 27.8917L188.639 28.8221ZM190.123 29.1768L190.038 30.1732C190.692 30.2292 191.342 30.1335 191.979 29.9046L191.64 28.9636L191.302 28.0225C190.911 28.1632 190.549 28.2097 190.209 28.1805L190.123 29.1768ZM191.64 28.9636L191.979 29.9046C192.378 29.7609 192.755 29.7055 193.115 29.7241L193.166 28.7254L193.218 27.7267C192.571 27.6933 191.93 27.7967 191.302 28.0225L191.64 28.9636ZM193.166 28.7254L193.115 29.7241C193.483 29.7431 193.849 29.8339 194.216 30.0051L194.638 29.0987L195.061 28.1923C194.472 27.9177 193.855 27.7597 193.218 27.7267L193.166 28.7254ZM194.638 29.0987L194.216 30.0051C194.844 30.298 195.509 30.4243 196.196 30.3729L196.121 29.3757L196.047 28.3785C195.712 28.4035 195.389 28.3452 195.061 28.1923L194.638 29.0987ZM196.121 29.3757L196.196 30.3729C196.584 30.3438 196.956 30.3854 197.32 30.4968L197.613 29.5406L197.906 28.5844C197.301 28.3994 196.68 28.3311 196.047 28.3785L196.121 29.3757ZM197.613 29.5406L197.32 30.4968C197.877 30.6672 198.445 30.7722 199.023 30.8109L199.09 29.8131L199.157 28.8154C198.734 28.787 198.317 28.7103 197.906 28.5844L197.613 29.5406ZM199.09 29.8131L199.023 30.8109C199.449 30.8394 199.867 30.9151 200.279 31.0386L200.566 30.0806L200.853 29.1226C200.298 28.9565 199.732 28.854 199.157 28.8154L199.09 29.8131ZM200.566 30.0806L200.279 31.0386C200.837 31.2056 201.407 31.3061 201.989 31.3399L202.047 30.3416L202.105 29.3433C201.679 29.3185 201.262 29.245 200.853 29.1226L200.566 30.0806ZM202.047 30.3416L201.989 31.3399C202.35 31.3609 202.696 31.4551 203.034 31.6286L203.491 30.7391L203.948 29.8497C203.368 29.5517 202.751 29.3808 202.105 29.3433L202.047 30.3416ZM203.491 30.7391L203.034 31.6286C203.534 31.8857 204.044 32.1037 204.564 32.2819L204.889 31.336L205.213 30.39C204.787 30.244 204.365 30.0641 203.948 29.8497L203.491 30.7391ZM204.889 31.336L204.564 32.2819C205.053 32.4495 205.544 32.604 206.036 32.7455L206.312 31.7844L206.588 30.8233C206.129 30.6912 205.67 30.5468 205.213 30.39L204.889 31.336ZM206.312 31.7844L206.036 32.7455C206.578 32.9014 207.138 33.0018 207.714 33.0478L207.794 32.051L207.874 31.0541C207.426 31.0184 206.998 30.941 206.588 30.8233L206.312 31.7844ZM207.794 32.051L207.714 33.0478C207.956 33.0671 208.138 33.0882 208.267 33.1092C208.332 33.1197 208.375 33.1288 208.401 33.1354C208.432 33.143 208.422 33.1429 208.391 33.1291L208.792 32.2131L209.194 31.2972C208.996 31.2108 208.771 31.1649 208.588 31.1351C208.385 31.1021 208.144 31.0757 207.874 31.0541L207.794 32.051ZM208.792 32.2131L208.303 33.0853L208.437 33.1603L208.926 32.2881L209.415 31.4159L209.281 31.341L208.792 32.2131ZM208.926 32.2881L208.667 33.254L208.763 33.2799L209.022 32.314L209.282 31.3482L209.185 31.3223L208.926 32.2881Z" fill="white"/>
<path d="M202.163 18.9755C201.874 18.5051 201.258 18.3585 200.787 18.6479C200.317 18.9374 200.17 19.5533 200.46 20.0237L202.163 18.9755ZM201.364 19.5847L202.303 19.2419L202.269 19.1468L202.216 19.0606L201.364 19.5847ZM202.327 21.5167L201.547 22.1424L202.327 21.5167ZM206.513 27.7467L207.349 27.1977L206.513 27.7467ZM208.911 31.5548L209.842 31.1878L208.911 31.5548ZM208.76 32.7558L208.007 32.0969L208.76 32.7558ZM206.503 34.5665L205.813 33.8427L206.503 34.5665ZM205.473 35.6846L206.25 36.3139L205.473 35.6846ZM204.379 36.7197L203.797 35.9065L204.379 36.7197ZM201.955 38.4903L201.385 37.6688L201.955 38.4903ZM200.772 39.413L201.43 40.1659L200.772 39.413ZM198.223 40.9158L198.962 41.5893L198.223 40.9158ZM197.784 41.464L196.996 42.0803L197.394 42.5884L198.021 42.4355L197.784 41.464ZM197.89 41.4379L198.507 42.2254L197.653 40.4664L197.89 41.4379ZM197.195 40.7121C196.76 41.0524 196.684 41.681 197.024 42.1159C197.364 42.5508 197.993 42.6275 198.428 42.2871L197.195 40.7121ZM201.312 19.4996L200.46 20.0237L200.512 20.1088L201.364 19.5847L202.216 19.0606L202.163 18.9755L201.312 19.4996ZM201.364 19.5847L200.425 19.9275C200.761 20.8507 201.127 21.6192 201.547 22.1424L202.327 21.5167L203.107 20.8911C202.896 20.6281 202.62 20.1087 202.303 19.2419L201.364 19.5847ZM202.327 21.5167L201.547 22.1424C201.872 22.548 202.208 22.9469 202.554 23.339L203.304 22.6768L204.053 22.0145C203.727 21.6461 203.412 21.2716 203.107 20.8911L202.327 21.5167ZM203.304 22.6768L202.554 23.339C202.856 23.6801 203.126 24.0391 203.365 24.416L204.209 23.8807L205.054 23.3453C204.758 22.8775 204.424 22.4339 204.053 22.0145L203.304 22.6768ZM204.209 23.8807L203.365 24.416C203.578 24.7523 203.743 25.1235 203.857 25.5342L204.82 25.266L205.784 24.9979C205.619 24.4061 205.376 23.8537 205.054 23.3453L204.209 23.8807ZM204.82 25.266L203.857 25.5342C204.041 26.1943 204.373 26.7768 204.849 27.2661L205.566 26.5687L206.282 25.8714C206.044 25.6262 205.879 25.3403 205.784 24.9979L204.82 25.266ZM205.566 26.5687L204.849 27.2661C205.163 27.5889 205.439 27.932 205.678 28.2957L206.513 27.7467L207.349 27.1977C207.039 26.7252 206.683 26.283 206.282 25.8714L205.566 26.5687ZM206.513 27.7467L205.678 28.2957C205.944 28.701 206.201 29.1121 206.448 29.529L207.308 29.019L208.168 28.509C207.905 28.0657 207.632 27.6286 207.349 27.1977L206.513 27.7467ZM207.308 29.019L206.448 29.529C206.726 29.9989 207.037 30.4487 207.379 30.8782L208.161 30.2552L208.943 29.6322C208.658 29.2738 208.4 28.8994 208.168 28.509L207.308 29.019ZM208.161 30.2552L207.379 30.8782C207.63 31.194 207.831 31.5408 207.981 31.9217L208.911 31.5548L209.842 31.1878C209.619 30.624 209.319 30.1043 208.943 29.6322L208.161 30.2552ZM208.911 31.5548L207.981 31.9217C208.005 31.9811 208.015 32.0231 208.019 32.0493C208.021 32.0622 208.021 32.0711 208.021 32.0765C208.021 32.0792 208.021 32.0811 208.021 32.0823C208.021 32.0829 208.021 32.0833 208.021 32.0836C208.021 32.0838 208.021 32.084 208.021 32.084C208.021 32.084 208.021 32.0839 208.021 32.0836C208.021 32.0834 208.021 32.0831 208.021 32.0828C208.022 32.082 208.022 32.0811 208.022 32.08C208.023 32.0777 208.023 32.076 208.024 32.0751C208.025 32.0728 208.022 32.0802 208.007 32.0969L208.76 32.7558L209.512 33.4147C209.776 33.1134 209.953 32.7489 210.005 32.3347C210.056 31.9301 209.981 31.5406 209.842 31.1878L208.911 31.5548ZM208.76 32.7558L208.007 32.0969C207.793 32.3412 207.515 32.577 207.159 32.7989L207.688 33.6474L208.218 34.4959C208.715 34.1856 209.151 33.827 209.512 33.4147L208.76 32.7558ZM207.688 33.6474L207.159 32.7989C206.675 33.101 206.226 33.4491 205.813 33.8427L206.503 34.5665L207.193 35.2904C207.507 34.9907 207.849 34.7261 208.218 34.4959L207.688 33.6474ZM206.503 34.5665L205.813 33.8427C205.418 34.2196 205.045 34.624 204.696 35.0554L205.473 35.6846L206.25 36.3139C206.547 35.9478 206.861 35.6068 207.193 35.2904L206.503 34.5665ZM205.473 35.6846L204.696 35.0554C204.428 35.3861 204.129 35.6688 203.797 35.9065L204.379 36.7197L204.961 37.5329C205.442 37.188 205.873 36.7807 206.25 36.3139L205.473 35.6846ZM204.379 36.7197L203.797 35.9065C203.382 36.2029 202.972 36.5048 202.566 36.812L203.17 37.6093L203.774 38.4066C204.165 38.1102 204.561 37.819 204.961 37.5329L204.379 36.7197ZM203.17 37.6093L202.566 36.812C202.179 37.1055 201.785 37.3911 201.385 37.6688L201.955 38.4903L202.525 39.3119C202.948 39.0185 203.364 38.7167 203.774 38.4066L203.17 37.6093ZM201.955 38.4903L201.385 37.6688C200.943 37.9756 200.519 38.306 200.114 38.6601L200.772 39.413L201.43 40.1659C201.779 39.8609 202.144 39.5762 202.525 39.3119L201.955 38.4903ZM200.772 39.413L200.114 38.6601C199.844 38.8956 199.523 39.0786 199.137 39.2048L199.448 40.1552L199.759 41.1057C200.384 40.9013 200.946 40.5894 201.43 40.1659L200.772 39.413ZM199.448 40.1552L199.137 39.2048C198.493 39.4156 197.928 39.7546 197.484 40.2422L198.223 40.9158L198.962 41.5893C199.14 41.3935 199.393 41.2255 199.759 41.1057L199.448 40.1552ZM198.223 40.9158L197.484 40.2422C197.325 40.4168 197.193 40.5669 197.099 40.6839C197.056 40.7379 196.999 40.8115 196.95 40.89C196.93 40.9234 196.881 41.0042 196.843 41.1114C196.824 41.1638 196.79 41.2711 196.783 41.4109C196.777 41.5477 196.793 41.8212 196.996 42.0803L197.784 41.464L198.571 40.8476C198.772 41.1037 198.787 41.373 198.781 41.5044C198.775 41.6387 198.742 41.7394 198.726 41.7838C198.694 41.8751 198.656 41.9351 198.651 41.9427C198.634 41.9696 198.63 41.9717 198.66 41.9343C198.713 41.8686 198.81 41.7564 198.962 41.5893L198.223 40.9158ZM197.784 41.464L198.021 42.4355L198.127 42.4094L197.89 41.4379L197.653 40.4664L197.547 40.4925L197.784 41.464ZM197.89 41.4379L197.274 40.6504L197.195 40.7121L197.812 41.4996L198.428 42.2871L198.507 42.2254L197.89 41.4379Z" fill="white"/>
</svg>
