<svg width="56" height="56" viewBox="0 0 56 56" fill="none" xmlns="http://www.w3.org/2000/svg">
<rect width="56" height="56" rx="28" fill="#A3D052"/>
<path d="M27.9987 12.416L40.8195 20.066C41.2445 20.3257 41.5751 20.6799 41.8112 21.1285C42.0473 21.5771 42.1654 22.0493 42.1654 22.5452V37.916C42.1654 38.6952 41.8879 39.3622 41.3331 39.9171C40.7782 40.4719 40.1112 40.7493 39.332 40.7493H16.6654C15.8862 40.7493 15.2192 40.4719 14.6643 39.9171C14.1095 39.3622 13.832 38.6952 13.832 37.916V22.5452C13.832 22.0493 13.9501 21.5771 14.1862 21.1285C14.4223 20.6799 14.7529 20.3257 15.1779 20.066L27.9987 12.416ZM27.9987 28.9202L39.0487 22.3327L27.9987 15.7452L16.9487 22.3327L27.9987 28.9202Z" fill="#19471F"/>
</svg>
