<svg width="104" height="104" viewBox="0 0 104 104" fill="none" xmlns="http://www.w3.org/2000/svg">
<rect width="104" height="104" rx="52" fill="#72A5FD"/>
<path d="M52.2673 78.667C51.5118 78.667 50.8784 78.4114 50.3673 77.9003C49.8562 77.3892 49.6006 76.7559 49.6006 76.0003C49.6006 75.6892 49.6673 75.367 49.8006 75.0337C49.934 74.7003 50.134 74.4003 50.4007 74.1337L62.734 61.8003L60.8006 59.867L48.534 72.2003C48.2673 72.467 47.9784 72.667 47.6673 72.8003C47.3562 72.9337 47.0229 73.0003 46.6673 73.0003C45.9118 73.0003 45.2784 72.7448 44.7673 72.2337C44.2562 71.7225 44.0007 71.0892 44.0007 70.3337C44.0007 69.8892 44.0673 69.5225 44.2006 69.2337C44.334 68.9448 44.5118 68.6892 44.734 68.467L57.0673 56.1337L55.2006 54.267L42.8673 66.5337C42.6007 66.8003 42.3118 67.0003 42.0007 67.1337C41.6895 67.267 41.334 67.3337 40.934 67.3337C40.2229 67.3337 39.6006 67.067 39.0673 66.5337C38.534 66.0003 38.2673 65.3781 38.2673 64.667C38.2673 64.3114 38.334 63.9781 38.4673 63.667C38.6006 63.3559 38.8007 63.067 39.0673 62.8003L51.4007 50.467L49.4673 48.6003L37.2007 60.9337C36.9784 61.1559 36.7118 61.3337 36.4007 61.467C36.0895 61.6003 35.7118 61.667 35.2673 61.667C34.5118 61.667 33.8784 61.4114 33.3673 60.9003C32.8562 60.3892 32.6007 59.7559 32.6007 59.0003C32.6007 58.6448 32.6673 58.3114 32.8007 58.0003C32.934 57.6892 33.134 57.4003 33.4007 57.1337L48.2673 42.267L58.2673 52.3337C58.7562 52.8225 59.334 53.2114 60.0006 53.5003C60.6673 53.7892 61.334 53.9337 62.0006 53.9337C63.4229 53.9337 64.6673 53.4337 65.734 52.4337C66.8006 51.4337 67.334 50.1559 67.334 48.6003C67.334 47.9781 67.2229 47.3337 67.0006 46.667C66.7784 46.0003 66.3784 45.3781 65.8006 44.8003L53.8673 32.867C54.6229 32.1559 55.4673 31.6114 56.4007 31.2337C57.334 30.8559 58.2673 30.667 59.2006 30.667C60.3562 30.667 61.4229 30.8559 62.4007 31.2337C63.3784 31.6114 64.2673 32.2003 65.0673 33.0003L76.334 44.3337C77.134 45.1337 77.7229 46.0225 78.1006 47.0003C78.4784 47.9781 78.6673 49.1114 78.6673 50.4003C78.6673 51.2892 78.4673 52.1892 78.0673 53.1003C77.6673 54.0114 77.0895 54.8448 76.334 55.6003L54.134 77.867C53.7784 78.2225 53.4673 78.4448 53.2006 78.5337C52.934 78.6226 52.6229 78.667 52.2673 78.667ZM29.4007 57.3337L27.6673 55.6003C26.9118 54.8892 26.334 54.0448 25.934 53.067C25.534 52.0892 25.334 51.067 25.334 50.0003C25.334 48.8448 25.5562 47.7781 26.0007 46.8003C26.4451 45.8225 27.0007 45.0003 27.6673 44.3337L38.934 33.0003C39.6451 32.2892 40.4895 31.7225 41.4673 31.3003C42.4451 30.8781 43.4007 30.667 44.334 30.667C45.534 30.667 46.6006 30.8337 47.534 31.167C48.4673 31.5003 49.3784 32.1114 50.2673 33.0003L63.934 46.667C64.2006 46.9337 64.4007 47.2225 64.534 47.5337C64.6673 47.8448 64.734 48.1781 64.734 48.5337C64.734 49.2448 64.4673 49.867 63.934 50.4003C63.4007 50.9337 62.7784 51.2003 62.0673 51.2003C61.6673 51.2003 61.334 51.1448 61.0673 51.0337C60.8006 50.9225 60.5118 50.7114 60.2006 50.4003L48.2006 38.5337L29.4007 57.3337Z" fill="#202048"/>
</svg>
