<svg width="80" height="80" viewBox="0 0 80 80" fill="none" xmlns="http://www.w3.org/2000/svg">
<rect width="80" height="80" rx="40" fill="#A3D052"/>
<path d="M31.5007 26.2879L29.4769 20.2165L32.3103 19.3058L34.3341 25.3266L31.5007 26.2879ZM38.4829 23.8087V17.7373H41.5186V23.8087H38.4829ZM48.5007 26.2879L45.6674 25.3266L47.6912 19.3058L50.5246 20.2671L48.5007 26.2879ZM59.9859 62.2611L49.3103 60.6421C48.1634 60.4734 47.16 60.0096 46.2999 59.2507C45.4397 58.4918 44.8242 57.5726 44.4531 56.4933L42.7329 51.1302C42.3619 49.9496 42.345 48.7775 42.6823 47.6138C43.0196 46.4501 43.6267 45.4804 44.5037 44.7046L47.2865 53.3058L49.1079 52.7492L44.6555 38.6837C44.217 37.3008 44.2592 35.9432 44.782 34.6108C45.3048 33.2785 46.1902 32.2581 47.4382 31.5498L49.968 30.1331L58.9234 47.0319C59.092 47.3692 59.3366 47.6307 59.657 47.8162C59.9774 48.0017 60.3232 48.0944 60.6942 48.0944H62.1615L59.9859 62.2611ZM20.0662 62.2611L17.8906 48.0944H19.3579C19.7289 48.0944 20.0747 48.0017 20.3951 47.8162C20.7155 47.6307 20.9601 47.3692 21.1287 47.0319L30.0841 30.1331L32.6138 31.5498C33.8619 32.2581 34.7473 33.2785 35.2701 34.6108C35.7929 35.9432 35.8351 37.3008 35.3966 38.6837L30.8936 52.7492L32.715 53.3058L35.4978 44.654C36.4085 45.4298 37.0325 46.4079 37.3698 47.5885C37.7071 48.7691 37.6902 49.9496 37.3192 51.1302L35.599 56.4933C35.2279 57.5726 34.6124 58.4918 33.7522 59.2507C32.8921 60.0096 31.8886 60.4734 30.7418 60.6421L20.0662 62.2611Z" fill="#19471F"/>
</svg>
