<svg width="80" height="80" viewBox="0 0 80 80" fill="none" xmlns="http://www.w3.org/2000/svg">
<rect width="80" height="80" rx="40" fill="#FF7C72"/>
<path d="M48.35 21.7861C51.723 21.7861 54.5479 23.0341 56.8247 25.5302C59.1015 28.0262 60.2399 30.9945 60.2399 34.4349C60.2399 35.0421 60.2061 35.6408 60.1387 36.2311C60.0712 36.8214 59.9532 37.4032 59.7845 37.9766H47.1357L43.6952 32.8159C43.5266 32.5461 43.2905 32.3268 42.9869 32.1582C42.6833 31.9895 42.3629 31.9052 42.0256 31.9052C41.5871 31.9052 41.1908 32.0401 40.8366 32.3099C40.4824 32.5798 40.2379 32.9171 40.103 33.3219L37.3708 41.5183L35.6 38.8873C35.4313 38.6175 35.1952 38.3982 34.8917 38.2296C34.5881 38.0609 34.2676 37.9766 33.9303 37.9766H20.219C20.0504 37.4032 19.9323 36.8214 19.8649 36.2311C19.7974 35.6408 19.7637 35.059 19.7637 34.4855C19.7637 31.0113 20.8936 28.0262 23.1536 25.5302C25.4135 23.0341 28.2299 21.7861 31.603 21.7861C33.222 21.7861 34.7483 22.1066 36.1818 22.7474C37.6154 23.3883 38.8887 24.2822 40.0018 25.429C41.0811 24.2822 42.3376 23.3883 43.7711 22.7474C45.2046 22.1066 46.7309 21.7861 48.35 21.7861ZM40.0018 58.2147C39.3946 58.2147 38.8128 58.1051 38.2562 57.8858C37.6997 57.6666 37.2022 57.3377 36.7637 56.8992L23.2041 43.2891C23.0018 43.0867 22.8163 42.8844 22.6476 42.682C22.479 42.4796 22.3103 42.2603 22.1416 42.0242H32.8172L36.2577 47.185C36.4264 47.4548 36.6625 47.674 36.9661 47.8427C37.2696 48.0113 37.5901 48.0957 37.9274 48.0957C38.3659 48.0957 38.7706 47.9607 39.1417 47.6909C39.5127 47.4211 39.7657 47.0838 39.9006 46.679L42.6327 38.4826L44.353 41.1135C44.5553 41.3834 44.8083 41.6026 45.1119 41.7713C45.4155 41.9399 45.7359 42.0242 46.0732 42.0242H57.8113L57.3053 42.6314L56.7994 43.2385L43.1893 56.8992C42.7508 57.3377 42.2617 57.6666 41.722 57.8858C41.1823 58.1051 40.6089 58.2147 40.0018 58.2147Z" fill="#401C30"/>
</svg>
