<svg width="56" height="56" viewBox="0 0 56 56" fill="none" xmlns="http://www.w3.org/2000/svg">
<rect width="56" height="56" rx="28" fill="white"/>
<g clip-path="url(#clip0_33310_9488)">
<path d="M28 19.8025C30.67 19.8025 30.9867 19.8125 32.0417 19.8608C34.7517 19.9842 36.0175 21.27 36.1408 23.96C36.1892 25.0142 36.1983 25.3308 36.1983 28.0008C36.1983 30.6717 36.1883 30.9875 36.1408 32.0417C36.0167 34.7292 34.7542 36.0175 32.0417 36.1408C30.9867 36.1892 30.6717 36.1992 28 36.1992C25.33 36.1992 25.0133 36.1892 23.9592 36.1408C21.2425 36.0167 19.9833 34.725 19.86 32.0408C19.8117 30.9867 19.8017 30.6708 19.8017 28C19.8017 25.33 19.8125 25.0142 19.86 23.9592C19.9842 21.27 21.2467 19.9833 23.9592 19.86C25.0142 19.8125 25.33 19.8025 28 19.8025ZM28 18C25.2842 18 24.9442 18.0117 23.8775 18.06C20.2458 18.2267 18.2275 20.2417 18.0608 23.8767C18.0117 24.9442 18 25.2842 18 28C18 30.7158 18.0117 31.0567 18.06 32.1233C18.2267 35.755 20.2417 37.7733 23.8767 37.94C24.9442 37.9883 25.2842 38 28 38C30.7158 38 31.0567 37.9883 32.1233 37.94C35.7517 37.7733 37.775 35.7583 37.9392 32.1233C37.9883 31.0567 38 30.7158 38 28C38 25.2842 37.9883 24.9442 37.94 23.8775C37.7767 20.2492 35.7592 18.2275 32.1242 18.0608C31.0567 18.0117 30.7158 18 28 18ZM28 22.865C25.1642 22.865 22.865 25.1642 22.865 28C22.865 30.8358 25.1642 33.1358 28 33.1358C30.8358 33.1358 33.135 30.8367 33.135 28C33.135 25.1642 30.8358 22.865 28 22.865ZM28 31.3333C26.1592 31.3333 24.6667 29.8417 24.6667 28C24.6667 26.1592 26.1592 24.6667 28 24.6667C29.8408 24.6667 31.3333 26.1592 31.3333 28C31.3333 29.8417 29.8408 31.3333 28 31.3333ZM33.3383 21.4625C32.675 21.4625 32.1375 22 32.1375 22.6625C32.1375 23.325 32.675 23.8625 33.3383 23.8625C34.0008 23.8625 34.5375 23.325 34.5375 22.6625C34.5375 22 34.0008 21.4625 33.3383 21.4625Z" fill="black"/>
</g>
<defs>
<clipPath id="clip0_33310_9488">
<rect width="20" height="20" fill="white" transform="translate(18 18)"/>
</clipPath>
</defs>
</svg>
