<svg width="56" height="56" viewBox="0 0 56 56" fill="none" xmlns="http://www.w3.org/2000/svg">
<rect width="56" height="56" rx="28" fill="white"/>
<g clip-path="url(#clip0_33310_9486)">
<path d="M22.15 20.9168C22.15 22.0677 21.225 23.0002 20.0833 23.0002C18.9417 23.0002 18.0167 22.0677 18.0167 20.9168C18.0167 19.7668 18.9417 18.8335 20.0833 18.8335C21.225 18.8335 22.15 19.7668 22.15 20.9168ZM22.1667 24.6668H18V38.0002H22.1667V24.6668ZM28.8183 24.6668H24.6783V38.0002H28.8192V31.001C28.8192 27.1093 33.8433 26.791 33.8433 31.001V38.0002H38V29.5577C38 22.991 30.565 23.2302 28.8183 26.4627V24.6668Z" fill="black"/>
</g>
<defs>
<clipPath id="clip0_33310_9486">
<rect width="20" height="20" fill="white" transform="translate(18 18)"/>
</clipPath>
</defs>
</svg>
