<svg width="56" height="56" viewBox="0 0 56 56" fill="none" xmlns="http://www.w3.org/2000/svg">
<rect width="56" height="56" rx="28" fill="#FF7C72"/>
<path d="M20.918 39.3694V26.584H23.1846C23.3499 26.584 23.5152 26.6017 23.6805 26.6371C23.8457 26.6725 24.011 26.7138 24.1763 26.7611L33.9867 30.409C34.3173 30.527 34.5829 30.7395 34.7836 31.0465C34.9843 31.3534 35.0846 31.6722 35.0846 32.0027C35.0846 32.4986 34.9135 32.9 34.5711 33.2069C34.2287 33.5138 33.8332 33.6673 33.3846 33.6673H29.6659C29.5478 33.6673 29.4593 33.6614 29.4003 33.6496C29.3412 33.6378 29.2645 33.6083 29.17 33.5611L26.9034 32.6757L26.443 34.0569L29.17 35.0132C29.2173 35.0368 29.2881 35.0545 29.3825 35.0663C29.477 35.0781 29.5596 35.084 29.6305 35.084H39.3346C40.0902 35.084 40.7513 35.3555 41.318 35.8986C41.8846 36.4416 42.168 37.1145 42.168 37.9173L30.8701 42.1673L20.918 39.3694ZM12.418 42.1673V26.584H18.0846V42.1673H12.418ZM33.668 29.4173L27.7888 23.6798C27.0569 22.9715 26.4371 22.1864 25.9294 21.3246C25.4218 20.4628 25.168 19.5243 25.168 18.509C25.168 17.2104 25.6225 16.1066 26.5315 15.1975C27.4405 14.2885 28.5444 13.834 29.843 13.834C30.5985 13.834 31.3069 13.9934 31.968 14.3121C32.6291 14.6309 33.1957 15.0618 33.668 15.6048C34.1402 15.0618 34.7069 14.6309 35.368 14.3121C36.0291 13.9934 36.7374 13.834 37.493 13.834C38.7916 13.834 39.8954 14.2885 40.8044 15.1975C41.7135 16.1066 42.168 17.2104 42.168 18.509C42.168 19.5243 41.92 20.4628 41.4242 21.3246C40.9284 22.1864 40.3145 22.9715 39.5825 23.6798L33.668 29.4173Z" fill="#401C30"/>
</svg>
