<svg width="56" height="56" viewBox="0 0 56 56" fill="none" xmlns="http://www.w3.org/2000/svg">
<rect width="56" height="56" rx="28" fill="#A3D052"/>
<path d="M28.0007 42.1663C26.0409 42.1663 24.1993 41.7945 22.4757 41.0507C20.752 40.307 19.2527 39.2976 17.9777 38.0226C16.7027 36.7476 15.6934 35.2483 14.9496 33.5247C14.2059 31.8011 13.834 29.9594 13.834 27.9997C13.834 26.04 14.2059 24.1983 14.9496 22.4747C15.6934 20.7511 16.7027 19.2518 17.9777 17.9768C19.2527 16.7018 20.752 15.6924 22.4757 14.9486C24.1993 14.2049 26.0409 13.833 28.0007 13.833C29.9604 13.833 31.802 14.2049 33.5257 14.9486C35.2493 15.6924 36.7486 16.7018 38.0236 17.9768C39.2986 19.2518 40.3079 20.7511 41.0517 22.4747C41.7954 24.1983 42.1673 26.04 42.1673 27.9997C42.1673 29.9594 41.7954 31.8011 41.0517 33.5247C40.3079 35.2483 39.2986 36.7476 38.0236 38.0226C36.7486 39.2976 35.2493 40.307 33.5257 41.0507C31.802 41.7945 29.9604 42.1663 28.0007 42.1663ZM28.0007 39.333C31.1645 39.333 33.8444 38.2351 36.0402 36.0393C38.2361 33.8434 39.334 31.1636 39.334 27.9997C39.334 24.8358 38.2361 22.1559 36.0402 19.9601C33.8444 17.7643 31.1645 16.6663 28.0007 16.6663C24.8368 16.6663 22.1569 17.7643 19.9611 19.9601C17.7652 22.1559 16.6673 24.8358 16.6673 27.9997C16.6673 31.1636 17.7652 33.8434 19.9611 36.0393C22.1569 38.2351 24.8368 39.333 28.0007 39.333ZM28.0007 36.4997C25.6395 36.4997 23.6326 35.6733 21.9798 34.0205C20.327 32.3677 19.5007 30.3608 19.5007 27.9997C19.5007 25.6386 20.327 23.6316 21.9798 21.9788C23.6326 20.3261 25.6395 19.4997 28.0007 19.4997C30.3618 19.4997 32.3687 20.3261 34.0215 21.9788C35.6743 23.6316 36.5007 25.6386 36.5007 27.9997C36.5007 30.3608 35.6743 32.3677 34.0215 34.0205C32.3687 35.6733 30.3618 36.4997 28.0007 36.4997ZM28.0007 33.6663C29.559 33.6663 30.893 33.1115 32.0027 32.0018C33.1125 30.892 33.6673 29.558 33.6673 27.9997C33.6673 26.4413 33.1125 25.1073 32.0027 23.9976C30.893 22.8879 29.559 22.333 28.0007 22.333C26.4423 22.333 25.1083 22.8879 23.9986 23.9976C22.8888 25.1073 22.334 26.4413 22.334 27.9997C22.334 29.558 22.8888 30.892 23.9986 32.0018C25.1083 33.1115 26.4423 33.6663 28.0007 33.6663ZM28.0007 30.833C27.2215 30.833 26.5545 30.5556 25.9996 30.0007C25.4447 29.4459 25.1673 28.7788 25.1673 27.9997C25.1673 27.2205 25.4447 26.5535 25.9996 25.9986C26.5545 25.4438 27.2215 25.1663 28.0007 25.1663C28.7798 25.1663 29.4468 25.4438 30.0017 25.9986C30.5566 26.5535 30.834 27.2205 30.834 27.9997C30.834 28.7788 30.5566 29.4459 30.0017 30.0007C29.4468 30.5556 28.7798 30.833 28.0007 30.833Z" fill="#19471F"/>
</svg>
