<svg width="104" height="104" viewBox="0 0 104 104" fill="none" xmlns="http://www.w3.org/2000/svg">
<rect width="104" height="104" rx="52" fill="#A3D052"/>
<path d="M70.2673 78.6003C69.9118 78.6003 69.5784 78.5448 69.2673 78.4337C68.9562 78.3226 68.6673 78.1337 68.4007 77.867L54.8007 64.267C54.534 64.0003 54.3451 63.7114 54.234 63.4003C54.1229 63.0892 54.0673 62.7559 54.0673 62.4003C54.0673 62.0448 54.1229 61.7114 54.234 61.4003C54.3451 61.0892 54.534 60.8003 54.8007 60.5337L60.4673 54.867C60.734 54.6003 61.0229 54.4114 61.334 54.3003C61.6451 54.1892 61.9784 54.1337 62.334 54.1337C62.6895 54.1337 63.0229 54.1892 63.334 54.3003C63.6451 54.4114 63.934 54.6003 64.2007 54.867L77.8007 68.467C78.0673 68.7337 78.2562 69.0225 78.3673 69.3337C78.4784 69.6448 78.534 69.9781 78.534 70.3337C78.534 70.6892 78.4784 71.0225 78.3673 71.3337C78.2562 71.6448 78.0673 71.9337 77.8007 72.2003L72.134 77.867C71.8673 78.1337 71.5784 78.3226 71.2673 78.4337C70.9562 78.5448 70.6229 78.6003 70.2673 78.6003ZM33.6673 78.667C33.3118 78.667 32.9673 78.6003 32.634 78.467C32.3007 78.3337 32.0007 78.1337 31.734 77.867L26.134 72.267C25.8673 72.0003 25.6673 71.7003 25.534 71.367C25.4007 71.0337 25.334 70.6892 25.334 70.3337C25.334 69.9781 25.4007 69.6448 25.534 69.3337C25.6673 69.0225 25.8673 68.7337 26.134 68.467L40.2673 54.3337H45.934L48.2007 52.067L37.2007 41.067H33.4007L25.334 33.0003L32.8673 25.467L40.934 33.5337V37.3337L51.934 48.3337L59.6673 40.6003L56.8007 37.7337L60.534 34.0003H53.0007L51.134 32.1337L60.6007 22.667L62.4673 24.5337V32.067L66.2007 28.3337L75.6673 37.8003C76.4229 38.5559 77.0007 39.4114 77.4007 40.367C77.8007 41.3225 78.0007 42.3337 78.0007 43.4003C78.0007 44.467 77.8007 45.4892 77.4007 46.467C77.0007 47.4448 76.4229 48.3114 75.6673 49.067L70.0007 43.4003L66.2673 47.1337L63.4673 44.3337L49.6673 58.1337V63.7337L35.534 77.867C35.2673 78.1337 34.9784 78.3337 34.6673 78.467C34.3562 78.6003 34.0229 78.667 33.6673 78.667Z" fill="#19471F"/>
</svg>
