<svg width="80" height="80" viewBox="0 0 80 80" fill="none" xmlns="http://www.w3.org/2000/svg">
<rect width="80" height="80" rx="40" fill="#FF7C72"/>
<path d="M38.4839 60.2379C38.0791 60.2379 37.725 60.0861 37.4214 59.7826C37.1178 59.479 36.9661 59.1248 36.9661 58.7201C36.9661 58.3153 37.1178 57.9611 37.4214 57.6576C37.725 57.354 38.0791 57.2022 38.4839 57.2022V54.0653C37.0672 53.8966 35.7349 53.5593 34.4869 53.0534C33.2389 52.5474 32.1089 51.8728 31.097 51.0296L28.9214 53.2558C29.225 53.5593 29.3768 53.9135 29.3768 54.3183C29.3768 54.723 29.225 55.0772 28.9214 55.3808C28.6178 55.6843 28.2637 55.8361 27.8589 55.8361C27.4541 55.8361 27.1 55.6843 26.7964 55.3808L24.6208 53.2558C24.3172 52.9522 24.1655 52.5896 24.1655 52.168C24.1655 51.7463 24.3172 51.3837 24.6208 51.0802C24.9244 50.7766 25.2786 50.6332 25.6833 50.6501C26.0881 50.667 26.4422 50.8103 26.7458 51.0802L28.972 48.854C28.1288 47.8083 27.4541 46.6784 26.9482 45.4641C26.4422 44.2498 26.1049 42.9343 25.9363 41.5177H22.7994C22.7994 41.9224 22.6476 42.2766 22.344 42.5802C22.0405 42.8837 21.6863 43.0355 21.2815 43.0355C20.8768 43.0355 20.5226 42.8837 20.219 42.5802C19.9155 42.2766 19.7637 41.9224 19.7637 41.5177V38.482C19.7637 38.0772 19.9155 37.723 20.219 37.4195C20.5226 37.1159 20.8768 36.9641 21.2815 36.9641C21.6863 36.9641 22.0405 37.1159 22.344 37.4195C22.6476 37.723 22.7994 38.0772 22.7994 38.482H25.9363C26.1049 37.0653 26.4507 35.7498 26.9735 34.5355C27.4963 33.3212 28.1625 32.1913 28.972 31.1456L26.7458 28.9195C26.4422 29.1893 26.0881 29.3327 25.6833 29.3495C25.2786 29.3664 24.9244 29.223 24.6208 28.9195C24.3172 28.6159 24.1655 28.2533 24.1655 27.8317C24.1655 27.41 24.3172 27.0474 24.6208 26.7439L26.7458 24.6189C27.0494 24.3153 27.412 24.1635 27.8336 24.1635C28.2552 24.1635 28.6178 24.3153 28.9214 24.6189C29.225 24.9224 29.3768 25.285 29.3768 25.7067C29.3768 26.1283 29.225 26.4909 28.9214 26.7945L31.097 28.9701C32.1426 28.1268 33.2726 27.4522 34.4869 26.9462C35.7012 26.4403 37.0166 26.103 38.4333 25.9343V22.7974C38.0286 22.7974 37.6828 22.6456 37.3961 22.3421C37.1094 22.0385 36.9661 21.6843 36.9661 21.2796C36.9661 20.8748 37.1178 20.5206 37.4214 20.2171C37.725 19.9135 38.0791 19.7617 38.4839 19.7617H41.5196C41.9244 19.7617 42.2786 19.9135 42.5821 20.2171C42.8857 20.5206 43.0375 20.8748 43.0375 21.2796C43.0375 21.6843 42.8857 22.0385 42.5821 22.3421C42.2786 22.6456 41.9244 22.7974 41.5196 22.7974V25.9343C42.9363 26.103 44.2518 26.4403 45.4661 26.9462C46.6803 27.4522 47.8103 28.1268 48.8559 28.9701L51.0821 26.7439C50.7786 26.4403 50.6268 26.0861 50.6268 25.6814C50.6268 25.2766 50.7786 24.9224 51.0821 24.6189C51.3857 24.3153 51.7483 24.1635 52.1699 24.1635C52.5915 24.1635 52.9541 24.3153 53.2577 24.6189L55.3827 26.7945C55.6863 27.098 55.8381 27.4522 55.8381 27.857C55.8381 28.2617 55.6863 28.6159 55.3827 28.9195C55.0791 29.223 54.7165 29.3748 54.2949 29.3748C53.8733 29.3748 53.5107 29.223 53.2071 28.9195L51.0315 31.0951C51.8748 32.1407 52.5494 33.2791 53.0553 34.5102C53.5613 35.7414 53.8986 37.0653 54.0672 38.482H57.2041C57.2041 38.0772 57.3559 37.723 57.6595 37.4195C57.9631 37.1159 58.3172 36.9641 58.722 36.9641C59.1268 36.9641 59.4809 37.1159 59.7845 37.4195C60.0881 37.723 60.2399 38.0772 60.2399 38.482V41.5177C60.2399 41.9224 60.0881 42.2766 59.7845 42.5802C59.4809 42.8837 59.1268 43.0355 58.722 43.0355C58.3172 43.0355 57.9631 42.8837 57.6595 42.5802C57.3559 42.2766 57.2041 41.9224 57.2041 41.5177H54.0672C53.8986 42.9343 53.5613 44.2582 53.0553 45.4894C52.5494 46.7205 51.8748 47.8589 51.0315 48.9046L53.2071 51.0802C53.5107 50.7766 53.8733 50.6248 54.2949 50.6248C54.7165 50.6248 55.0791 50.7766 55.3827 51.0802C55.6863 51.3837 55.8381 51.7463 55.8381 52.168C55.8381 52.5896 55.6863 52.9522 55.3827 53.2558L53.2577 55.3808C52.9541 55.6843 52.5915 55.8361 52.1699 55.8361C51.7483 55.8361 51.3857 55.6843 51.0821 55.3808C50.7786 55.0772 50.6352 54.723 50.6521 54.3183C50.6689 53.9135 50.8123 53.5593 51.0821 53.2558L48.8559 51.0296C47.8103 51.8728 46.6803 52.5559 45.4661 53.0787C44.2518 53.6015 42.9363 53.9472 41.5196 54.1159V57.2022C41.9244 57.2022 42.2786 57.354 42.5821 57.6576C42.8857 57.9611 43.0375 58.3153 43.0375 58.7201C43.0375 59.1248 42.8857 59.479 42.5821 59.7826C42.2786 60.0861 41.9244 60.2379 41.5196 60.2379H38.4839ZM36.4601 48.0951C37.0335 48.0951 37.5142 47.9011 37.9021 47.5132C38.29 47.1253 38.4839 46.6447 38.4839 46.0712C38.4839 45.4978 38.29 45.0172 37.9021 44.6293C37.5142 44.2414 37.0335 44.0474 36.4601 44.0474C35.8867 44.0474 35.406 44.2414 35.0181 44.6293C34.6302 45.0172 34.4363 45.4978 34.4363 46.0712C34.4363 46.6447 34.6302 47.1253 35.0181 47.5132C35.406 47.9011 35.8867 48.0951 36.4601 48.0951ZM43.5434 48.0951C44.1168 48.0951 44.5975 47.9011 44.9854 47.5132C45.3733 47.1253 45.5672 46.6447 45.5672 46.0712C45.5672 45.4978 45.3733 45.0172 44.9854 44.6293C44.5975 44.2414 44.1168 44.0474 43.5434 44.0474C42.97 44.0474 42.4894 44.2414 42.1015 44.6293C41.7136 45.0172 41.5196 45.4978 41.5196 46.0712C41.5196 46.6447 41.7136 47.1253 42.1015 47.5132C42.4894 47.9011 42.97 48.0951 43.5434 48.0951ZM32.9184 42.0236C33.4918 42.0236 33.9725 41.8297 34.3604 41.4418C34.7483 41.0539 34.9422 40.5732 34.9422 39.9998C34.9422 39.4264 34.7483 38.9457 34.3604 38.5578C33.9725 38.17 33.4918 37.976 32.9184 37.976C32.345 37.976 31.8644 38.17 31.4765 38.5578C31.0886 38.9457 30.8946 39.4264 30.8946 39.9998C30.8946 40.5732 31.0886 41.0539 31.4765 41.4418C31.8644 41.8297 32.345 42.0236 32.9184 42.0236ZM40.0018 42.0236C40.5752 42.0236 41.0558 41.8297 41.4437 41.4418C41.8316 41.0539 42.0256 40.5732 42.0256 39.9998C42.0256 39.4264 41.8316 38.9457 41.4437 38.5578C41.0558 38.17 40.5752 37.976 40.0018 37.976C39.4284 37.976 38.9477 38.17 38.5598 38.5578C38.1719 38.9457 37.978 39.4264 37.978 39.9998C37.978 40.5732 38.1719 41.0539 38.5598 41.4418C38.9477 41.8297 39.4284 42.0236 40.0018 42.0236ZM47.0851 42.0236C47.6585 42.0236 48.1392 41.8297 48.5271 41.4418C48.915 41.0539 49.1089 40.5732 49.1089 39.9998C49.1089 39.4264 48.915 38.9457 48.5271 38.5578C48.1392 38.17 47.6585 37.976 47.0851 37.976C46.5117 37.976 46.031 38.17 45.6431 38.5578C45.2552 38.9457 45.0613 39.4264 45.0613 39.9998C45.0613 40.5732 45.2552 41.0539 45.6431 41.4418C46.031 41.8297 46.5117 42.0236 47.0851 42.0236ZM36.4601 35.9522C37.0335 35.9522 37.5142 35.7582 37.9021 35.3703C38.29 34.9825 38.4839 34.5018 38.4839 33.9284C38.4839 33.355 38.29 32.8743 37.9021 32.4864C37.5142 32.0985 37.0335 31.9046 36.4601 31.9046C35.8867 31.9046 35.406 32.0985 35.0181 32.4864C34.6302 32.8743 34.4363 33.355 34.4363 33.9284C34.4363 34.5018 34.6302 34.9825 35.0181 35.3703C35.406 35.7582 35.8867 35.9522 36.4601 35.9522ZM43.5434 35.9522C44.1168 35.9522 44.5975 35.7582 44.9854 35.3703C45.3733 34.9825 45.5672 34.5018 45.5672 33.9284C45.5672 33.355 45.3733 32.8743 44.9854 32.4864C44.5975 32.0985 44.1168 31.9046 43.5434 31.9046C42.97 31.9046 42.4894 32.0985 42.1015 32.4864C41.7136 32.8743 41.5196 33.355 41.5196 33.9284C41.5196 34.5018 41.7136 34.9825 42.1015 35.3703C42.4894 35.7582 42.97 35.9522 43.5434 35.9522Z" fill="#401C30"/>
</svg>
