<svg width="80" height="80" viewBox="0 0 80 80" fill="none" xmlns="http://www.w3.org/2000/svg">
<rect width="80" height="80" rx="40" fill="#72A5FD"/>
<path d="M19.7637 56.8982V52.9518C20.7418 52.9518 21.5767 52.8 22.2681 52.4964C22.9596 52.1929 23.6595 51.864 24.3678 51.5098C25.0762 51.1556 25.8604 50.8352 26.7205 50.5485C27.5806 50.2618 28.6347 50.1184 29.8827 50.1184C31.1645 50.1184 32.2185 50.2618 33.0449 50.5485C33.8713 50.8352 34.6387 51.1556 35.347 51.5098C36.0553 51.864 36.7637 52.1929 37.472 52.4964C38.1803 52.8 39.0236 52.9518 40.0018 52.9518C40.9799 52.9518 41.8232 52.8 42.5315 52.4964C43.2399 52.1929 43.9482 51.864 44.6565 51.5098C45.3649 51.1556 46.1407 50.8352 46.9839 50.5485C47.8272 50.2618 48.8728 50.1184 50.1208 50.1184C51.4026 50.1184 52.4651 50.2618 53.3083 50.5485C54.1516 50.8352 54.9274 51.1556 55.6357 51.5098C56.344 51.864 57.0524 52.1929 57.7607 52.4964C58.469 52.8 59.2954 52.9518 60.2399 52.9518V56.8982C58.9581 56.8982 57.8872 56.7464 57.0271 56.4429C56.167 56.1393 55.3827 55.8104 54.6744 55.4562C53.9661 55.1021 53.2746 54.7816 52.6 54.4949C51.9254 54.2082 51.099 54.0649 50.1208 54.0649C49.1764 54.0649 48.3584 54.2082 47.667 54.4949C46.9755 54.7816 46.284 55.1021 45.5925 55.4562C44.9011 55.8104 44.1253 56.1393 43.2652 56.4429C42.405 56.7464 41.3172 56.8982 40.0018 56.8982C38.6863 56.8982 37.5985 56.7464 36.7384 56.4429C35.8783 56.1393 35.1025 55.8104 34.411 55.4562C33.7195 55.1021 33.0365 54.7816 32.3619 54.4949C31.6873 54.2082 30.8609 54.0649 29.8827 54.0649C28.9383 54.0649 28.1203 54.2082 27.4289 54.4949C26.7374 54.7816 26.0375 55.1021 25.3291 55.4562C24.6208 55.8104 23.8366 56.1393 22.9765 56.4429C22.1164 56.7464 21.0454 56.8982 19.7637 56.8982ZM19.7637 47.8923V43.9458C20.7418 43.9458 21.5767 43.794 22.2681 43.4905C22.9596 43.1869 23.6595 42.858 24.3678 42.5039C25.0762 42.1497 25.8604 41.8293 26.7205 41.5426C27.5806 41.2558 28.6347 41.1125 29.8827 41.1125C31.1645 41.1125 32.2185 41.2558 33.0449 41.5426C33.8713 41.8293 34.6387 42.1497 35.347 42.5039C36.0553 42.858 36.7637 43.1869 37.472 43.4905C38.1803 43.794 39.0236 43.9458 40.0018 43.9458C40.9799 43.9458 41.8232 43.794 42.5315 43.4905C43.2399 43.1869 43.9482 42.858 44.6565 42.5039C45.3649 42.1497 46.1407 41.8293 46.9839 41.5426C47.8272 41.2558 48.8728 41.1125 50.1208 41.1125C51.4026 41.1125 52.4651 41.2558 53.3083 41.5426C54.1516 41.8293 54.9274 42.1497 55.6357 42.5039C56.344 42.858 57.0524 43.1869 57.7607 43.4905C58.469 43.794 59.2954 43.9458 60.2399 43.9458V47.8923C58.9581 47.8923 57.8872 47.7405 57.0271 47.4369C56.167 47.1333 55.3827 46.8045 54.6744 46.4503C53.9661 46.0961 53.2746 45.7757 52.6 45.489C51.9254 45.2023 51.099 45.0589 50.1208 45.0589C49.1426 45.0589 48.3078 45.2023 47.6164 45.489C46.9249 45.7757 46.2334 46.0961 45.542 46.4503C44.8505 46.8045 44.0831 47.1333 43.2399 47.4369C42.3966 47.7405 41.3172 47.8923 40.0018 47.8923C38.6863 47.8923 37.5985 47.7405 36.7384 47.4369C35.8783 47.1333 35.1025 46.8045 34.411 46.4503C33.7195 46.0961 33.0365 45.7757 32.3619 45.489C31.6873 45.2023 30.8609 45.0589 29.8827 45.0589C28.9383 45.0589 28.1203 45.2023 27.4289 45.489C26.7374 45.7757 26.0375 46.0961 25.3291 46.4503C24.6208 46.8045 23.8366 47.1333 22.9765 47.4369C22.1164 47.7405 21.0454 47.8923 19.7637 47.8923ZM19.7637 38.8863V34.9399C20.7418 34.9399 21.5767 34.7881 22.2681 34.4845C22.9596 34.1809 23.6595 33.8521 24.3678 33.4979C25.0762 33.1437 25.8604 32.8233 26.7205 32.5366C27.5806 32.2499 28.6347 32.1065 29.8827 32.1065C31.1645 32.1065 32.2185 32.2499 33.0449 32.5366C33.8713 32.8233 34.6387 33.1437 35.347 33.4979C36.0553 33.8521 36.7637 34.1809 37.472 34.4845C38.1803 34.7881 39.0236 34.9399 40.0018 34.9399C40.9799 34.9399 41.8232 34.7881 42.5315 34.4845C43.2399 34.1809 43.9482 33.8521 44.6565 33.4979C45.3649 33.1437 46.1407 32.8233 46.9839 32.5366C47.8272 32.2499 48.8728 32.1065 50.1208 32.1065C51.4026 32.1065 52.4651 32.2499 53.3083 32.5366C54.1516 32.8233 54.9274 33.1437 55.6357 33.4979C56.344 33.8521 57.0524 34.1809 57.7607 34.4845C58.469 34.7881 59.2954 34.9399 60.2399 34.9399V38.8863C58.9581 38.8863 57.8872 38.7345 57.0271 38.4309C56.167 38.1274 55.3827 37.7985 54.6744 37.4443C53.9661 37.0902 53.2746 36.7697 52.6 36.483C51.9254 36.1963 51.099 36.053 50.1208 36.053C49.1764 36.053 48.3584 36.1963 47.667 36.483C46.9755 36.7697 46.284 37.0902 45.5925 37.4443C44.9011 37.7985 44.1253 38.1274 43.2652 38.4309C42.405 38.7345 41.3172 38.8863 40.0018 38.8863C38.6863 38.8863 37.5985 38.7345 36.7384 38.4309C35.8783 38.1274 35.1025 37.7985 34.411 37.4443C33.7195 37.0902 33.0365 36.7697 32.3619 36.483C31.6873 36.1963 30.8609 36.053 29.8827 36.053C28.9383 36.053 28.1203 36.1963 27.4289 36.483C26.7374 36.7697 26.0375 37.0902 25.3291 37.4443C24.6208 37.7985 23.8366 38.1274 22.9765 38.4309C22.1164 38.7345 21.0454 38.8863 19.7637 38.8863ZM19.7637 29.8803V25.9339C20.7418 25.9339 21.5767 25.7821 22.2681 25.4786C22.9596 25.175 23.6595 24.8461 24.3678 24.492C25.0762 24.1378 25.8604 23.8174 26.7205 23.5306C27.5806 23.2439 28.6347 23.1006 29.8827 23.1006C31.1645 23.1006 32.2185 23.2439 33.0449 23.5306C33.8713 23.8174 34.6387 24.1378 35.347 24.492C36.0553 24.8461 36.7637 25.175 37.472 25.4786C38.1803 25.7821 39.0236 25.9339 40.0018 25.9339C40.9799 25.9339 41.8232 25.7821 42.5315 25.4786C43.2399 25.175 43.9482 24.8461 44.6565 24.492C45.3649 24.1378 46.1407 23.8174 46.9839 23.5306C47.8272 23.2439 48.8728 23.1006 50.1208 23.1006C51.4026 23.1006 52.4651 23.2439 53.3083 23.5306C54.1516 23.8174 54.9274 24.1378 55.6357 24.492C56.344 24.8461 57.0524 25.175 57.7607 25.4786C58.469 25.7821 59.2954 25.9339 60.2399 25.9339V29.8803C58.9581 29.8803 57.8872 29.7286 57.0271 29.425C56.167 29.1214 55.3827 28.7926 54.6744 28.4384C53.9661 28.0842 53.2746 27.7638 52.6 27.4771C51.9254 27.1904 51.099 27.047 50.1208 27.047C49.1764 27.047 48.3584 27.1904 47.667 27.4771C46.9755 27.7638 46.284 28.0842 45.5925 28.4384C44.9011 28.7926 44.1253 29.1214 43.2652 29.425C42.405 29.7286 41.3172 29.8803 40.0018 29.8803C38.6863 29.8803 37.5985 29.7286 36.7384 29.425C35.8783 29.1214 35.1025 28.7926 34.411 28.4384C33.7195 28.0842 33.0365 27.7638 32.3619 27.4771C31.6873 27.1904 30.8609 27.047 29.8827 27.047C28.9383 27.047 28.1203 27.1904 27.4289 27.4771C26.7374 27.7638 26.0375 28.0842 25.3291 28.4384C24.6208 28.7926 23.8366 29.1214 22.9765 29.425C22.1164 29.7286 21.0454 29.8803 19.7637 29.8803Z" fill="#202048"/>
</svg>
